<svg version="1.1" xmlns="http://www.w3.org/2000/svg" xmlns:xlink="http://www.w3.org/1999/xlink" x="0px" y="0px"
     width="100px" height="100px" viewBox="0 0 100 100" enable-background="new 0 0 100 100" xml:space="preserve"><circle fill="#801615" cx="51" cy="52" r="41.5"/>
    <linearGradient id="SVGID_1_" gradientUnits="userSpaceOnUse" x1="49.9995" y1="8.5" x2="49.9995" y2="91.5005"><stop  offset="0" style="stop-color:#d65431"/>
        <stop offset="1" style="stop-color:#b51c1c"/></linearGradient>
    <circle fill="url(#SVGID_1_)" cx="50" cy="50" r="41.5"/>
    <g id="fpv" transform="translate(28, 27)" fill="#FFFFFF" fill-rule="nonzero"><path d="M29.1901705,12.5343244 C30.1591197,13.4050355 30.7149987,14.6535155 30.7149987,15.9572787 L30.7149987,27.0431052 C30.7149987,28.3484041 30.1591197,29.5953484 29.1886349,30.4675952 L24.5819034,34.6138387 C23.7035533,35.4046962 22.6010088,35.7993572 21.5,35.7993572 C20.3989912,35.7993572 19.2964467,35.4046962 18.4180966,34.6138387 L13.8113651,30.4675952 C12.8424159,29.5968841 12.2865369,28.3484041 12.2865369,27.0446409 L12.2865369,15.9588143 C12.2865369,14.6535155 12.8424159,13.4065711 13.8129006,12.5343244 L18.4196322,8.38808089 C20.177868,6.80636579 22.8252031,6.80636579 24.583439,8.38808089 L29.1901705,12.5343244 Z M1.53903223,10.7514397 C1.93213999,10.7514397 2.32524775,10.6009464 2.6246853,10.3014955 L5.37797518,7.54808267 L10.168976,12.3392974 C10.5835818,11.5684032 11.0980002,10.8481853 11.7613695,10.2508192 L12.1099455,9.93754743 L7.54928131,5.37667961 L10.3025712,2.62173117 C10.9029819,2.02129369 10.9029819,1.04922995 10.3025712,0.45032811 C9.70216052,-0.15010937 8.73167574,-0.15010937 8.13126507,0.45032811 L0.453379163,8.13009241 C-0.147031515,8.73052989 -0.147031515,9.70259363 0.453379163,10.3014955 C0.752816713,10.6009464 1.14592447,10.7514397 1.53903223,10.7514397 Z M31.2432372,10.2508192 C31.9066066,10.8466497 32.4194893,11.5668676 32.8340952,12.3377617 L37.6235604,7.54808267 L40.3768503,10.3014955 C40.6762878,10.6009464 41.0693956,10.7514397 41.4625033,10.7514397 C41.8556111,10.7514397 42.2487189,10.6009464 42.5481564,10.3014955 C43.1485671,9.70105799 43.1485671,8.72899424 42.5481564,8.13009241 L34.8687349,0.451863756 C34.2683243,-0.148573724 33.2978395,-0.148573724 32.6974288,0.451863756 C32.0970181,1.05230124 32.0970181,2.02436498 32.6974288,2.62326682 L35.4522543,5.37667961 L30.8931256,9.93601179 L31.2432372,10.2508192 Z M11.7582984,32.7495648 C11.094929,32.1537342 10.5820462,31.4335164 10.1674404,30.6626222 L5.3764396,35.4538369 L2.62161414,32.7004241 C2.02120346,32.0999866 1.05071869,32.0999866 0.450308008,32.7004241 C-0.150102669,33.3008616 -0.150102669,34.2729253 0.450308008,34.8718272 L8.12972949,42.5500558 C8.42916704,42.8495067 8.8222748,43 9.21538256,43 C9.60849031,43 10.0015981,42.8495067 10.3010356,42.5500558 C10.9014463,41.9496183 10.9014463,40.9775546 10.3010356,40.3786527 L7.54774574,37.6252399 L12.10841,33.0643721 L11.7582984,32.7495648 L11.7582984,32.7495648 Z M40.3783859,32.6988884 L37.625096,35.4538369 L32.8356307,30.6641579 C32.4210249,31.435052 31.9066066,32.1552699 31.2432372,32.752636 L30.8946612,33.0659078 L35.4537898,37.6252399 L32.7005,40.3786527 C32.1000893,40.9790902 32.1000893,41.951154 32.7005,42.5500558 C32.9999375,42.8495067 33.3930453,43 33.786153,43 C34.1792608,43 34.5723685,42.8495067 34.8718061,42.5500558 L42.549692,34.8702915 C43.1501027,34.269854 43.1501027,33.2977903 42.549692,32.6988884 C41.9492813,32.098451 40.9787965,32.098451 40.3783859,32.6988884 L40.3783859,32.6988884 Z" id="Shape"></path></g></svg>