<svg version="1.1" xmlns="http://www.w3.org/2000/svg" xmlns:xlink="http://www.w3.org/1999/xlink" x="0px" y="0px"
     width="100px" height="100px" viewBox="0 0 100 100" enable-background="new 0 0 100 100" xml:space="preserve"><circle fill="#801615" cx="51" cy="52" r="41.5"/>
    <linearGradient id="SVGID_1_" gradientUnits="userSpaceOnUse" x1="49.9995" y1="8.5" x2="49.9995" y2="91.5005"><stop  offset="0" style="stop-color:#d65431"/>
        <stop offset="1" style="stop-color:#b51c1c"/></linearGradient>
    <circle fill="url(#SVGID_1_)" cx="50" cy="50" r="41.5"/>
    <path d="M32.9311523,48.2019502 L45.9708399,43.1300131 L45.9708399,21.5535584 L50.1717891,15.0454102 L54.7447374,21.5535584 L54.7447374,43.1300131 L67.9311523,48.2019502 L67.9311523,52.3330562 L54.7447374,48.2019502 L54.7447374,66.9330685 L53.6280717,70.2891231 L54.7447374,74.0563629 L54.7447374,79.0454102 L45.9708399,79.0454102 L45.9708399,74.0563629 L47.2974027,70.2891231 C46.4130275,68.0517533 45.9708399,66.9330685 45.9708399,66.9330685 C45.9708399,66.9330685 45.9708399,60.6893624 45.9708399,48.2019502 L32.9311523,52.3330562 L32.9311523,48.2019502 Z"
          id="Path-2" fill="#FFFFFF"></path></svg>